<?xml version="1.0" standalone="no"?>
<!DOCTYPE svg PUBLIC "-//W3C//DTD SVG 20010904//EN"
 "http://www.w3.org/TR/2001/REC-SVG-20010904/DTD/svg10.dtd">
<svg version="1.0" xmlns="http://www.w3.org/2000/svg"
 width="800.000000pt" height="800.000000pt" viewBox="0 0 800.000000 800.000000"
 preserveAspectRatio="xMidYMid meet">
<metadata>
Created by potrace 1.16, written by Peter Selinger 2001-2019
</metadata>
<style>svg { cursor: pointer; }</style>
<g transform="translate(0.000000,800.000000) scale(0.100000,-0.100000)"
fill="#1a1a1a" stroke="none">
<path d="M670 4000 l0 -3330 3330 0 3330 0 0 3330 0 3330 -3330 0 -3330 0 0
-3330z m2330 2270 l0 -270 -210 0 -210 0 0 -895 0 -895 210 0 210 0 0 -270 0
-270 -710 0 -710 0 2 268 3 267 208 3 207 2 0 895 0 895 -210 0 -210 0 0 270
0 270 710 0 710 0 0 -270z m2330 -726 c0 -848 -2 -1012 -16 -1101 -61 -413
-258 -663 -604 -766 -226 -68 -510 -66 -730 5 -168 54 -362 183 -478 318 l-43
50 172 198 c95 108 180 206 190 216 17 18 20 17 103 -60 99 -92 182 -144 273
-175 92 -30 227 -24 307 15 65 32 120 90 153 163 51 112 52 134 53 1171 l0
962 310 0 310 0 0 -996z m-1500 -3754 l0 -210 -1247 2 -1248 3 -3 208 -2 207
1250 0 1250 0 0 -210z"/>
</g>
</svg>
