<?xml version="1.0" standalone="no"?>
<!DOCTYPE svg PUBLIC "-//W3C//DTD SVG 20010904//EN"
 "http://www.w3.org/TR/2001/REC-SVG-20010904/DTD/svg10.dtd">
<svg version="1.0" xmlns="http://www.w3.org/2000/svg"
 width="512.000000pt" height="512.000000pt" viewBox="0 0 512.000000 512.000000"
 preserveAspectRatio="xMidYMid meet">
<metadata>
Created by potrace 1.16, written by Peter Selinger 2001-2019
</metadata>
<style>svg { cursor: pointer; }</style>
<g transform="translate(0.000000,512.000000) scale(0.100000,-0.100000)"
fill="#1a1a1a" stroke="none">
<path d="M2074 4538 c-456 -263 -1041 -600 -1301 -750 -260 -149 -470 -275
-468 -279 3 -4 40 -27 82 -51 43 -24 166 -95 273 -158 107 -62 200 -113 205
-113 6 0 463 261 1017 581 554 320 1014 582 1021 582 8 0 318 -175 688 -390
l673 -389 57 32 c252 143 508 293 509 297 0 3 -75 49 -167 102 -93 53 -526
302 -964 555 l-796 459 -829 -478z"/>
<path d="M1883 3642 l-963 -557 0 -328 0 -328 23 12 c12 7 302 174 644 371
342 197 631 358 641 358 10 0 26 -8 35 -18 15 -16 17 -60 19 -369 l3 -352 283
162 282 161 0 723 c0 398 -1 723 -2 723 -2 -1 -436 -252 -965 -558z"/>
<path d="M2960 3873 l0 -329 173 -100 c823 -480 1062 -619 1069 -622 5 -2 7
146 6 328 l-3 332 -570 330 c-313 181 -594 343 -622 359 l-53 30 0 -328z"/>
<path d="M4612 3651 c-151 -87 -278 -163 -283 -168 -5 -5 -8 -143 -7 -335 l3
-326 275 160 c151 88 278 163 283 167 4 4 6 154 5 334 l-3 327 -273 -159z"/>
<path d="M240 3084 l0 -329 233 -133 c127 -72 256 -146 285 -162 l52 -30 0
329 0 329 -267 155 c-148 86 -276 159 -285 162 -17 7 -18 -13 -18 -321z"/>
<path d="M1878 2858 l-278 -161 0 -1146 0 -1147 280 -162 c153 -89 282 -162
285 -162 3 0 5 333 5 739 0 407 3 747 6 756 4 9 18 21 32 26 27 10 -6 28 410
-214 l232 -136 -2 331 -3 330 -324 189 c-179 105 -331 195 -338 201 -10 8 -13
85 -13 364 0 195 -3 353 -7 353 -5 -1 -133 -73 -285 -161z"/>
<path d="M2618 2502 c-147 -87 -267 -161 -268 -167 -1 -5 124 -82 276 -171
l278 -161 285 164 c157 91 287 166 288 166 5 5 -566 327 -578 326 -8 -1 -134
-71 -281 -157z"/>
<path d="M3243 2073 l-283 -165 0 -329 0 -328 143 83 c78 45 206 120 285 165
l142 83 0 329 c0 181 -1 329 -2 328 -2 0 -130 -75 -285 -166z"/>
<path d="M2280 765 c0 -377 2 -685 6 -685 3 0 131 73 285 162 l279 163 0 360
0 361 -280 162 c-154 89 -282 162 -285 162 -3 0 -5 -308 -5 -685z"/>
</g>
</svg>
